<?xml version="1.0" encoding="UTF-8"?>
<!DOCTYPE svg PUBLIC "-//W3C//DTD SVG 1.1//EN" "http://www.w3.org/Graphics/SVG/1.1/DTD/svg11.dtd">
<svg xmlns="http://www.w3.org/2000/svg" version="1.1" width="1500px" height="1000px" style="shape-rendering:geometricPrecision; text-rendering:geometricPrecision; image-rendering:optimizeQuality; fill-rule:evenodd; clip-rule:evenodd" xmlns:xlink="http://www.w3.org/1999/xlink">
<g><path style="opacity:0.874" fill="#4a81ff" d="M 728.5,235.5 C 733.167,235.5 737.833,235.5 742.5,235.5C 749.695,248.788 757.029,261.954 764.5,275C 781.482,301.207 797.815,327.707 813.5,354.5C 814.378,357.53 815.378,360.53 816.5,363.5C 811.883,373.235 806.883,382.735 801.5,392C 795.73,400.355 790.064,408.855 784.5,417.5C 781.833,422.833 779.167,428.167 776.5,433.5C 775.833,433.833 775.167,434.167 774.5,434.5C 758.767,460.875 743.101,487.208 727.5,513.5C 717.825,527.525 708.825,542.192 700.5,557.5C 699.833,557.833 699.167,558.167 698.5,558.5C 693.479,566.542 688.979,574.876 685,583.5C 679.156,592.529 673.322,601.529 667.5,610.5C 657.365,628.544 646.698,646.377 635.5,664C 635.286,666.941 633.953,669.107 631.5,670.5C 628.485,676.176 625.485,681.842 622.5,687.5C 610.191,705.429 598.857,724.096 588.5,743.5C 587.833,743.833 587.167,744.167 586.5,744.5C 584.972,749.289 582.639,753.622 579.5,757.5C 578.012,759.577 576.012,760.577 573.5,760.5C 573.5,761.5 573.5,762.5 573.5,763.5C 523.833,763.5 474.167,763.5 424.5,763.5C 422.295,760.591 420.961,757.257 420.5,753.5C 420.75,750.246 421.75,747.246 423.5,744.5C 525.809,575.412 627.476,405.746 728.5,235.5 Z"/></g>
<g><path style="opacity:0.871" fill="#4a81ff" d="M 823.5,386.5 C 826.572,386.183 829.572,386.516 832.5,387.5C 869.579,447.763 905.913,508.43 941.5,569.5C 944.308,571.333 945.642,574 945.5,577.5C 988.414,579.123 1031.41,580.123 1074.5,580.5C 1076.65,581.977 1077.98,583.977 1078.5,586.5C 1076.49,591.179 1074.49,595.845 1072.5,600.5C 1071.83,600.833 1071.17,601.167 1070.5,601.5C 1066.01,609.82 1061.51,618.153 1057,626.5C 1043.66,648.918 1030.16,671.084 1016.5,693C 1021.46,701.746 1026.29,710.58 1031,719.5C 1037.15,729.13 1043.32,738.797 1049.5,748.5C 1050.5,751.797 1050.66,755.131 1050,758.5C 1048.95,760.107 1047.45,760.773 1045.5,760.5C 1045.5,761.5 1045.5,762.5 1045.5,763.5C 995.167,763.5 944.833,763.5 894.5,763.5C 894.5,762.5 894.5,761.5 894.5,760.5C 892.508,760.672 890.842,760.005 889.5,758.5C 883.128,747.625 876.961,736.625 871,725.5C 866.918,720.238 863.418,714.572 860.5,708.5C 859.328,708.081 858.328,707.415 857.5,706.5C 787.167,705.833 716.833,705.167 646.5,704.5C 642.25,703.564 639.25,701.231 637.5,697.5C 648.013,676.971 659.68,657.138 672.5,638C 672.714,635.059 674.047,632.893 676.5,631.5C 684.456,617.601 692.456,603.601 700.5,589.5C 702.497,586.053 705.164,583.053 708.5,580.5C 732.491,579.5 756.491,579.167 780.5,579.5C 780.216,576.368 779.383,573.368 778,570.5C 773.918,565.238 770.418,559.572 767.5,553.5C 766.833,553.167 766.167,552.833 765.5,552.5C 760.937,541.827 755.27,531.827 748.5,522.5C 746.634,518.93 746.301,515.264 747.5,511.5C 756.918,496.7 765.918,481.367 774.5,465.5C 775.167,465.167 775.833,464.833 776.5,464.5C 791.214,437.704 806.881,411.704 823.5,386.5 Z"/></g>
</svg>
